# xmcd
#
# Track frame offsets: 
#        150
#        16141
#        40975
#        55740
#        70084
#        88983
#        104215
#        124564
#        139380
#        157468
#        175174
#        198279
#
# Disc length: 2998 seconds
#
# Revision: 1
# Processed by: cddbd v1.5.2PL0 Copyright (c) Steve Scherf et al.
# Submitted via: ExactAudioCopy v0.95b2
#
DISCID=af0bb40c
DTITLE=Deep Relaxation II-Country - Deep Relaxation II-Country
DYEAR=1900
DGENRE=Instrumental
TTITLE0=Let It Blow
TTITLE1=I Believe
TTITLE2=Short Spring in My Long Summer
TTITLE3=A Golden Ray in the Shower
TTITLE4=Fragrance of Love
TTITLE5=Precious Moments
TTITLE6=Try to Remember
TTITLE7=Swan Lake
TTITLE8=Winter of My Heart
TTITLE9=Shimmering Moonbeam
TTITLE10=Autumn Leaves
TTITLE11=Silent Emotion
EXTD=
EXTT0=
EXTT1=
EXTT2=
EXTT3=
EXTT4=
EXTT5=
EXTT6=
EXTT7=
EXTT8=
EXTT9=
EXTT10=
EXTT11=
PLAYORDER=
